<svg id="Layer_1" xmlns="http://www.w3.org/2000/svg" viewBox="0 0 442.6 64.6"><style>.st0{fill:#b82728}</style><path class="st0" d="M19.5 47.5h-3.1V16.4H3.9V10H35.1v6.2H22.7V47.4h-3.2zM41.4 47.5h-3.1V10h6.2v18.6h6.2V35h-6.2v12.4h-3.1zM57 28.7h-6.2v-6.2H57v6.2zm3.1 18.8H57V28.8h6.2v18.6h-3.1zM72.6 41.2h-6.2V25.7h6.2v-6.2h18.7v12.4h-6.2V35H72.7v6.2zM82 28.7h3.1v-3.1H72.7v3.1H82zm6.3 18.8H72.7v-6.2h12.4v-3.1h6.2v9.3h-3zM128.9 53.7V38.2h-12.4V31.9h-6.2v-6.2h6.2v-6.2h18.6V53.6h-6.2zm-12.5 0h-6.2v-6.2h6.2v6.2zm9.4-21.9h3.1v-6.2h-12.4v6.2h9.3zm0 28.2h-9.3v-6.2h12.4V60h-3.1zM144.5 41.2h-6.2V25.7h6.2v15.5zM157 25.6h-12.4v-6.2H157v6.2zm-3.1 21.9h-9.3v-6.2H157v6.2h-3.1zm3.1-6.3V25.7h6.2v15.5H157zM172.6 41.2h-6.2V25.7h6.2v15.5zm12.5-15.6h-12.4v-6.2h12.4v6.2zM182 47.5h-9.3v-6.2h12.4v6.2H182zm3.1-6.3V25.7h6.2v15.5h-6.2zM216.4 47.5h-21.8V25.7h6.2v-6.2h12.4V10h6.2V47.4h-3zm-6.3-6.3h3.1V25.7h-12.4v15.5h9.3zM241.4 47.5h-3.1V10h6.2v6.2h6.2v6.2h-6.2V47.4h-3.1zm25 0h-3.1V22.6H257v6.2h-6.2v-6.2h6.2v-6.2h6.2V10h6.2V47.4h-3zM278.9 41.2h-6.2V25.7h6.2v15.5zm12.5-15.6h-12.5v-6.2h12.4v6.2zm-3.1 21.9h-9.4v-6.2h12.4v6.2h-3zm3.1-6.3V25.7h6.2v15.5h-6.2zM322.6 47.5H300.8V10h6.2v18.6h6.2V35H307v6.2h18.6v6.2h-3zm3.2-18.8h-12.4v-6.2h12.4v6.2zm0 12.5V28.8h6.2v12.4h-6.2zM338.3 16.2h-3.1V10h6.2v6.2h-3.1zm0 31.3h-3.1V19.5h6.2V47.4h-3.1zM347.6 47.5h-3.1V10h6.2V47.4h-3.1zM360.1 41.2h-6.2V25.7h6.2v-6.2h18.6v12.4h-6.2V35h-12.4v6.2zm9.4-12.5h3.1v-3.1h-12.4v3.1h9.3zm6.3 18.8h-15.5v-6.2h12.4v-3.1h6.2v9.3h-3.1zM407 41.2h-6.2V10h6.2V41.2zm12.5 6.3H407v-6.2h15.5v6.2h-3zm3.1-6.3V10h6.2V41.2h-6.2zM435.1 16.2H432V10h6.2v6.2h-3.1zm0 31.3H432V19.5h6.2V47.4h-3.1z"/></svg>